<?xml version="1.0" encoding="UTF-8" standalone="no"?>
<svg
   xmlns:dc="http://purl.org/dc/elements/1.1/"
   xmlns:cc="http://creativecommons.org/ns#"
   xmlns:rdf="http://www.w3.org/1999/02/22-rdf-syntax-ns#"
   xmlns:svg="http://www.w3.org/2000/svg"
   xmlns="http://www.w3.org/2000/svg"
   xmlns:xlink="http://www.w3.org/1999/xlink"
   xmlns:sodipodi="http://sodipodi.sourceforge.net/DTD/sodipodi-0.dtd"
   xmlns:inkscape="http://www.inkscape.org/namespaces/inkscape"
   style="enable-background:new"
   height="512"
   width="512"
   version="1.1"
   viewBox="0 0 511.99999 511.99998"
   id="svg19"
   sodipodi:docname="ipfsvector.svg"
   inkscape:version="0.92.4 5da689c313, 2019-01-14">
  <metadata
     id="metadata23">
    <rdf:RDF>
      <cc:Work
         rdf:about="">
        <dc:format>image/svg+xml</dc:format>
        <dc:type
           rdf:resource="http://purl.org/dc/dcmitype/StillImage" />
        <dc:title></dc:title>
      </cc:Work>
    </rdf:RDF>
  </metadata>
  <sodipodi:namedview
     pagecolor="#ffffff"
     bordercolor="#666666"
     borderopacity="1"
     objecttolerance="10"
     gridtolerance="10"
     guidetolerance="10"
     inkscape:pageopacity="0"
     inkscape:pageshadow="2"
     inkscape:window-width="1366"
     inkscape:window-height="714"
     id="namedview21"
     showgrid="false"
     inkscape:zoom="1.0065002"
     inkscape:cx="226.09439"
     inkscape:cy="256"
     inkscape:window-x="0"
     inkscape:window-y="26"
     inkscape:window-maximized="1"
     inkscape:current-layer="svg19" />
  <defs
     id="defs5">
    <linearGradient
       id="a"
       y2="771.51"
       gradientUnits="userSpaceOnUse"
       x2="527.72"
       gradientTransform="translate(-50.017 -515.51)"
       y1="771.51"
       x1="84.315">
      <stop
         stop-color="#fff"
         offset="0"
         id="stop2" />
    </linearGradient>
    <clipPath
       clipPathUnits="userSpaceOnUse"
       id="clipPath838">
      <use
         x="0"
         y="0"
         xlink:href="#g834"
         id="use840"
         width="100%"
         height="100%" />
    </clipPath>
  </defs>
  <g
     transform="translate(-50.017 -515.51)"
     id="g9">
    <path
       d="m256 0-221.7 128v256l221.7 128 221.7-128v-256l-221.7-128zm-22.889 30.838c13.554 10.001 32.045 10.001 45.6 0l160.74 92.807c-0.32193 2.8543-0.32126 5.7336 0 8.5879l-160.74 92.807c-13.554-10.001-32.043-10.001-45.598 0l-160.74-92.81c0.32125-2.8543 0.32126-5.7356 0-8.5898l160.74-92.802zm221.79 127.03c2.3112 1.7054 4.8069 3.146 7.4395 4.2949v185.61c-15.438 6.7378-24.683 22.751-22.799 39.49l-160.74 92.805c-2.3113-1.7054-4.8069-3.144-7.4394-4.293l-0.17969-184.58c15.438-6.7378 24.683-22.749 22.799-39.488l160.92-93.842zm-397.81 1.0332 160.74 92.805c-1.884 16.739 7.3625 32.75 22.801 39.488v185.61c-2.6325 1.1489-5.1282 2.5896-7.4394 4.2949l-160.73-92.8c1.884-16.739-7.3606-32.75-22.799-39.488v-185.61c2.6325-1.1489 5.1262-2.5896 7.4375-4.2949z"
       transform="translate(50.017 515.51)"
       fill="url(#a)"
       id="path7" />
  </g>
  <g
     id="g836"
     clip-path="url(#clipPath838)"
     style="fill:#000000;fill-opacity:1">
    <g
       inkscape:label="Clip"
       id="g834"
       style="fill:#000000;fill-opacity:1">
      <g
         style="fill:#000000;fill-opacity:1"
         id="g17"
         transform="translate(0,-196.66)">
        <path
           inkscape:connector-curvature="0"
           style="fill:#000000;fill-opacity:1"
           id="path11"
           transform="translate(0,196.66)"
           d="M 477.7,128 256,256 V 512 L 477.7,384 Z m -22.801,29.865 c 2.3112,1.7054 4.8069,3.146 7.4395,4.2949 v 185.61 c -15.438,6.7378 -24.683,22.751 -22.799,39.49 l -160.74,92.805 c -2.3113,-1.7054 -4.8069,-3.144 -7.4394,-4.293 l -0.17969,-184.58 c 15.438,-6.7378 24.683,-22.749 22.799,-39.488 l 160.92,-93.842 z" />
        <path
           inkscape:connector-curvature="0"
           style="fill:#000000;fill-opacity:1"
           id="path13"
           transform="translate(0,196.66)"
           d="m 34.297,128 v 256 l 221.7,128 V 256 Z m 22.799,30.898 160.74,92.805 c -1.884,16.739 7.3625,32.75 22.801,39.488 v 185.61 c -2.6325,1.1489 -5.1282,2.5896 -7.4394,4.2949 l -160.74,-92.8 c 1.884,-16.739 -7.3606,-32.75 -22.799,-39.488 v -185.61 c 2.6325,-1.1489 5.1262,-2.5896 7.4375,-4.2949 z" />
        <path
           inkscape:connector-curvature="0"
           style="fill:#000000;fill-opacity:1"
           id="path15"
           transform="translate(0,196.66)"
           d="M 256,0 34.3,128 256,256 477.7,128 Z m -22.889,30.838 c 13.554,10.001 32.045,10.001 45.6,0 l 160.74,92.807 c -0.32193,2.8543 -0.32126,5.7336 0,8.5879 l -160.74,92.807 c -13.554,-10.001 -32.043,-10.001 -45.598,0 l -160.74,-92.81 c 0.32125,-2.8543 0.32126,-5.7356 0,-8.5898 l 160.74,-92.802 z" />
      </g>
    </g>
  </g>
  <path
     style="fill:#000000;stroke:#000000;stroke-width:1px;stroke-linecap:butt;stroke-linejoin:miter;stroke-opacity:1"
     d="m 34.3,128 22.791,30.9012 160.745,92.8018 22.801,39.488 -0.005,185.6132 15.365,35.1958 15.3651,-36.2251 -0.18169,-184.583 22.801,-39.485 160.918,-93.845 L 477.7,128 l -38.249,4.2329 -160.74,92.807 h -45.598 l -160.74,-92.81 z"
     id="path844"
     inkscape:connector-curvature="0" />
</svg>
